<svg viewBox="0 0 502.073 502.073" xmlns="http://www.w3.org/2000/svg">

 <g>
  <title>background</title>
  <rect fill="none" id="canvas_background" height="402" width="582" y="-1" x="-1"/>
 </g>
 <g>
  <title>Layer 1</title>
  <path id="svg_1" fill="#FFD15C" d="m501.812,481.176c0,6.269 -2.09,11.494 -6.269,15.673c-4.18,3.135 -8.359,5.224 -14.629,5.224l-459.755,0c-5.224,0 -10.449,-2.09 -14.629,-5.224c-4.18,-4.18 -6.269,-9.404 -6.269,-15.673l0,-306.156l501.551,0l0,306.156z"/>
  <path id="svg_2" fill="#F8B64C" d="m495.543,496.849c-4.18,3.135 -8.359,5.224 -14.629,5.224l-459.755,0c-5.224,0 -10.449,-2.09 -14.629,-5.224l244.506,-210.024l244.507,210.024z"/>
  <path id="svg_3" fill="#40596B" d="m501.812,175.02l-71.053,51.2l-166.139,119.119c-8.359,6.269 -19.853,6.269 -28.212,0l-165.094,-119.119l-71.053,-51.2l71.053,-51.2l154.645,-110.759l11.494,-8.359c8.359,-6.269 19.853,-6.269 28.212,0l11.494,8.359l74.188,53.29l36.571,26.122l42.841,31.347l71.053,51.2z"/>
  <path id="svg_4" fill="#F2F2F2" d="m430.759,77.845l0,148.375l-166.139,119.119c-8.359,6.269 -19.853,6.269 -28.212,0l-165.094,-119.119l0,-192.261c0,-11.494 9.404,-20.898 20.898,-20.898l272.718,0l65.829,64.784z"/>
  <path id="svg_5" fill="#CDD6E0" d="m365.975,61.127c0,9.404 7.314,16.718 16.718,16.718l48.065,0l-64.784,-64.784l0.001,48.066l0,0z"/>
  <g id="svg_7"/>
  <g id="svg_8"/>
  <g id="svg_9"/>
  <g id="svg_10"/>
  <g id="svg_11"/>
  <g id="svg_12"/>
  <g id="svg_13"/>
  <g id="svg_14"/>
  <g id="svg_15"/>
  <g id="svg_16"/>
  <g id="svg_17"/>
  <g id="svg_18"/>
  <g id="svg_19"/>
  <g id="svg_20"/>
  <g id="svg_21"/>
  <g stroke="null" id="svg_45">
   <circle stroke="null" transform="matrix(0.3666098516202377,0,0,0.37442233437150385,-549.5414782404085,-942.1911508611519) " id="svg_26" fill="#FFD15C" r="256" cy="2953.156551" cx="2183.732564"/>
   <path stroke="null" id="svg_27" fill="#F8B64C" d="m272.797621,256.793241c35.367219,-8.576518 62.984672,-37.59013 70.22485,-74.154718l-53.674249,-54.678391l-12.610279,-2.260388l-12.42954,3.677202l32.86474,33.760539l0.854568,3.868906l-23.784181,30.590679l-59.981404,-61.216554l-21.264471,27.295014l-0.712323,5.917745l28.984175,29.841834l-2.834627,1.26068l54.362742,56.097452z"/>
   <path stroke="null" id="svg_28" fill="#FFFFFF" d="m298.160423,140.166674c-6.301657,-12.103951 -16.84169,-20.97776 -29.677434,-24.985577l-4.173853,14.196597c9.123453,2.84898 16.538137,9.156124 21.01701,17.758851c4.478873,8.602728 5.409328,18.472126 2.620161,27.79c-5.757608,19.23445 -25.762774,30.098314 -44.596989,24.21876c-15.797952,-4.933389 -25.822898,-20.105731 -25.247687,-36.220493l8.532111,11.497761l10.073339,-7.797345l-22.443122,-30.24359l-29.612544,22.92588l7.63575,10.287628l11.37737,-8.807537c-1.547094,23.260239 12.687267,45.453374 35.435042,52.556165c4.877744,1.52315 9.809746,2.247657 14.664394,2.247657c21.515966,-0.000749 41.474573,-14.241528 48.083815,-36.322336c3.923092,-13.112645 2.614295,-26.997722 -3.687362,-39.102422z"/>
   <g stroke="null" transform="matrix(0.3666098516202377,0,0,0.37442233437150385,-549.5414782404085,-942.1911508611519) " id="svg_30"/>
   <g stroke="null" transform="matrix(0.3666098516202377,0,0,0.37442233437150385,-549.5414782404085,-942.1911508611519) " id="svg_31"/>
   <g stroke="null" transform="matrix(0.3666098516202377,0,0,0.37442233437150385,-549.5414782404085,-942.1911508611519) " id="svg_32"/>
   <g stroke="null" transform="matrix(0.3666098516202377,0,0,0.37442233437150385,-549.5414782404085,-942.1911508611519) " id="svg_33"/>
   <g stroke="null" transform="matrix(0.3666098516202377,0,0,0.37442233437150385,-549.5414782404085,-942.1911508611519) " id="svg_34"/>
   <g stroke="null" transform="matrix(0.3666098516202377,0,0,0.37442233437150385,-549.5414782404085,-942.1911508611519) " id="svg_35"/>
   <g stroke="null" transform="matrix(0.3666098516202377,0,0,0.37442233437150385,-549.5414782404085,-942.1911508611519) " id="svg_36"/>
   <g stroke="null" transform="matrix(0.3666098516202377,0,0,0.37442233437150385,-549.5414782404085,-942.1911508611519) " id="svg_37"/>
   <g stroke="null" transform="matrix(0.3666098516202377,0,0,0.37442233437150385,-549.5414782404085,-942.1911508611519) " id="svg_38"/>
   <g stroke="null" transform="matrix(0.3666098516202377,0,0,0.37442233437150385,-549.5414782404085,-942.1911508611519) " id="svg_39"/>
   <g stroke="null" transform="matrix(0.3666098516202377,0,0,0.37442233437150385,-549.5414782404085,-942.1911508611519) " id="svg_40"/>
   <g stroke="null" transform="matrix(0.3666098516202377,0,0,0.37442233437150385,-549.5414782404085,-942.1911508611519) " id="svg_41"/>
   <g stroke="null" transform="matrix(0.3666098516202377,0,0,0.37442233437150385,-549.5414782404085,-942.1911508611519) " id="svg_42"/>
   <g stroke="null" transform="matrix(0.3666098516202377,0,0,0.37442233437150385,-549.5414782404085,-942.1911508611519) " id="svg_43"/>
   <g stroke="null" transform="matrix(0.3666098516202377,0,0,0.37442233437150385,-549.5414782404085,-942.1911508611519) " id="svg_44"/>
  </g>
 </g>
</svg>