<svg viewBox="0 0 230 543.6667" xmlns="http://www.w3.org/2000/svg">
 <metadata id="metadata8">image/svg+xml</metadata>
 <defs>
  <clipPath clipPathUnits="userSpaceOnUse" id="clipPath20">
   <path d="m299.278,630.643c-7.308,0 -13.287,-5.98 -13.287,-13.288l0,0l0,-114.684c0,-7.308 5.979,-13.288 13.287,-13.288l0,0l212.587,0c7.308,0 13.287,5.98 13.287,13.288l0,0l0,114.684c0,7.308 -5.979,13.288 -13.287,13.288l0,0l-212.587,0zm-22.349,-19.903c0,6.357 5.154,11.509 11.51,11.509l0,0c6.357,0 11.51,-5.152 11.51,-11.509l0,0c0,-6.357 -5.153,-11.51 -11.51,-11.51l0,0c-6.356,0 -11.51,5.153 -11.51,11.51m-190.909,0c0,6.357 5.153,11.509 11.51,11.509l0,0c6.357,0 11.51,-5.152 11.51,-11.509l0,0c0,-6.357 -5.153,-11.51 -11.51,-11.51l0,0c-6.357,0 -11.51,5.153 -11.51,11.51" id="path18"/>
  </clipPath>
  <clipPath clipPathUnits="userSpaceOnUse" id="clipPath42">
   <path d="m0,800l800,0l0,-800l-800,0l0,800z" id="path40"/>
  </clipPath>
  <clipPath clipPathUnits="userSpaceOnUse" id="clipPath74">
   <path d="m301.734,462.505c-9.778,0 -17.779,-8 -17.779,-17.778l0,0l0,-72.141c0,-9.779 8.001,-17.779 17.779,-17.779l0,0l207.702,0c9.778,0 17.779,8 17.779,17.779l0,0l0,72.141c0,9.778 -8.001,17.778 -17.779,17.778l0,0l-207.702,0z" id="path72"/>
  </clipPath>
  <clipPath clipPathUnits="userSpaceOnUse" id="clipPath96">
   <path d="m0,800l800,0l0,-800l-800,0l0,800z" id="path94"/>
  </clipPath>
  <clipPath clipPathUnits="userSpaceOnUse" id="clipPath120">
   <path d="m0,800l800,0l0,-800l-800,0l0,800z" id="path118"/>
  </clipPath>
  <clipPath clipPathUnits="userSpaceOnUse" id="clipPath132">
   <path d="m68.461,624.356l0,-164.34l21.107,7.697l46.026,16.783l46.027,-16.783l21.106,-7.696l0,164.339l-134.266,0z" id="path130"/>
  </clipPath>
  <clipPath clipPathUnits="userSpaceOnUse" id="clipPath154">
   <path d="m0,800l800,0l0,-800l-800,0l0,800z" id="path152"/>
  </clipPath>
  <clipPath clipPathUnits="userSpaceOnUse" id="clipPath174">
   <path d="m0,800l800,0l0,-800l-800,0l0,800z" id="path172"/>
  </clipPath>
  <clipPath clipPathUnits="userSpaceOnUse" id="clipPath186">
   <path d="m52.727,354.807c0,-42.826 34.929,-77.755 77.755,-77.755l0,0c42.825,0 77.754,34.929 77.754,77.755l0,0c0,42.826 -34.929,77.754 -77.754,77.754l0,0c-42.826,0 -77.755,-34.928 -77.755,-77.754" id="path184"/>
  </clipPath>
  <clipPath clipPathUnits="userSpaceOnUse" id="clipPath214">
   <path d="m119.724,241.501l-9.208,6.754l-4.988,-10.273l-10.353,4.817l-2.888,-11.051l-11.093,2.713l-0.688,-11.399l-11.409,0.507l1.542,-11.314l-11.289,-1.73l3.73,-10.794l-10.729,-3.914l5.776,-9.853l-9.759,-5.931l7.571,-8.55l-8.43,-7.705l9.094,-6.91l-6.754,-9.21l10.273,-4.988l-4.817,-10.353l11.049,-2.885l-2.712,-11.095l11.399,-0.687l-0.507,-11.41l11.317,1.544l1.727,-11.292l10.796,3.731l3.913,-10.731l9.855,5.777l5.929,-9.759l8.55,7.572l7.706,-8.429l6.908,9.094l9.21,-6.754l4.989,10.274l10.352,-4.818l2.888,11.048l11.093,-2.71l0.687,11.396l11.411,-0.507l-1.544,11.317l11.289,1.727l-3.73,10.797l10.729,3.912l-5.775,9.855l9.759,5.928l-7.571,8.549l8.43,7.709l-9.095,6.91l6.753,9.208l-10.273,4.988l4.817,10.352l-11.049,2.888l2.713,11.093l-11.399,0.689l0.508,11.41l-11.317,-1.544l-1.729,11.289l-10.794,-3.728l-3.912,10.728l-9.855,-5.776l-5.931,9.759l-8.547,-7.569l-7.708,8.428l-6.91,-9.094z" id="path212"/>
  </clipPath>
  <clipPath clipPathUnits="userSpaceOnUse" id="clipPath238">
   <path d="m0,800l800,0l0,-800l-800,0l0,800z" id="path236"/>
  </clipPath>
  <clipPath clipPathUnits="userSpaceOnUse" id="clipPath254">
   <path d="m-583.565914,865.060151l800,0l0,-800l-800,0l0,800z" id="path252"/>
  </clipPath>
  <clipPath clipPathUnits="userSpaceOnUse" id="clipPath266">
   <path d="m41.787086,652.466151l-30.668,-50.16c-1.794,-2.934 -2.75,-6.303 -2.766,-9.742l0,0l-0.853,-190.251c-0.02,-4.321 3.467,-7.84 7.787,-7.858l0,0l142.452,-0.639c4.319,-0.019 7.837,3.466 7.857,7.786l0,0l0.853,190.253c0.015,3.439 -0.911,6.816 -2.678,9.766l0,0l-30.215,50.433c-1.396,2.33 -3.908,3.761 -6.623,3.772l0,0l-78.489,0.352c-0.012,0 -0.025,0 -0.036,0l0,0c-2.703,0 -5.211,-1.405 -6.621,-3.712m45.747,-30.639c-4.924,0.022 -8.897,4.031 -8.876,8.955l0,0c0.023,4.924 4.032,8.898 8.956,8.876l0,0c4.924,-0.023 8.898,-4.032 8.876,-8.956l0,0c-0.022,-4.91 -4.01,-8.875 -8.914,-8.875l0,0c-0.014,0 -0.028,0 -0.042,0" id="path264"/>
  </clipPath>
  <clipPath clipPathUnits="userSpaceOnUse" id="clipPath296">
   <path d="m-583.565914,865.060151l800,0l0,-800l-800,0l0,800z" id="path294"/>
  </clipPath>
  <clipPath clipPathUnits="userSpaceOnUse" id="clipPath308">
   <path d="m8.032086,520.832151l-0.532,-118.519c-0.02,-4.321 3.467,-7.84 7.787,-7.858l0,0l142.452,-0.639c4.319,-0.019 7.837,3.466 7.857,7.786l0,0l0.534,119.164c-23.631,7.262 -50.563,11.38 -79.156,11.38l0,0c-28.505,0 -55.362,-4.094 -78.942,-11.314" id="path306"/>
  </clipPath>
  <clipPath clipPathUnits="userSpaceOnUse" id="clipPath334">
   <path d="m0,800l800,0l0,-800l-800,0l0,800z" id="path332"/>
  </clipPath>
  <clipPath clipPathUnits="userSpaceOnUse" id="clipPath354">
   <path d="m596.46,219.764c0,-39.751 32.337,-72.09 72.085,-72.09l0,0c39.747,0 72.085,32.339 72.085,72.09l0,0c0,39.747 -32.338,72.084 -72.085,72.084l0,0c-39.748,0 -72.085,-32.337 -72.085,-72.084" id="path352"/>
  </clipPath>
  <clipPath clipPathUnits="userSpaceOnUse" id="clipPath382">
   <path d="m0,800l800,0l0,-800l-800,0l0,800z" id="path380"/>
  </clipPath>
  <clipPath clipPathUnits="userSpaceOnUse" id="clipPath394">
   <path d="m432.079,168.04c0,-37.824 30.66,-68.484 68.484,-68.484l0,0c12.496,0 24.659,3.357 35.355,9.822l0,0l3.249,1.963l3.201,-2.04c5.737,-3.655 11.49,-7.883 16.725,-12.663l0,0c-1.932,6.277 -4.532,12.359 -7.776,18.038l0,0c-0.121,0.212 -0.244,0.422 -0.367,0.633l0,0l-2.237,3.837l2.958,3.314c11.236,12.59 17.376,28.704 17.376,45.58l0,0c0,37.824 -30.66,68.484 -68.484,68.484l0,0c-37.824,0 -68.484,-30.66 -68.484,-68.484" id="path392"/>
  </clipPath>
  <clipPath clipPathUnits="userSpaceOnUse" id="clipPath422">
   <path d="m0,800l800,0l0,-800l-800,0l0,800z" id="path420"/>
  </clipPath>
  <clipPath clipPathUnits="userSpaceOnUse" id="clipPath434">
   <path d="m257.618,164.005c0,-37.137 30.103,-67.242 67.238,-67.242l0,0c37.137,0 67.24,30.105 67.24,67.242l0,0c0,37.135 -30.103,67.237 -67.24,67.237l0,0c-37.135,0 -67.238,-30.102 -67.238,-67.237" id="path432"/>
  </clipPath>
  <clipPath clipPathUnits="userSpaceOnUse" id="clipPath462">
   <path d="m447.217,327.591l0,-64.859l67.947,0l-19.336,32.43l19.336,32.429l-67.947,0z" id="path460"/>
  </clipPath>
  <clipPath clipPathUnits="userSpaceOnUse" id="clipPath484">
   <path d="m0,800l800,0l0,-800l-800,0l0,800z" id="path482"/>
  </clipPath>
  <clipPath clipPathUnits="userSpaceOnUse" id="clipPath496">
   <path d="m281.605,327.591l19.333,-32.429l-19.333,-32.43l67.947,0l0,64.859l-67.947,0z" id="path494"/>
  </clipPath>
  <clipPath clipPathUnits="userSpaceOnUse" id="clipPath518">
   <path d="m0,800l800,0l0,-800l-800,0l0,800z" id="path516"/>
  </clipPath>
  <clipPath clipPathUnits="userSpaceOnUse" id="clipPath530">
   <path d="m330.43,334.713l6.612,-64.857l122.671,0l6.611,64.857l-135.894,0z" id="path528"/>
  </clipPath>
  <clipPath clipPathUnits="userSpaceOnUse" id="clipPath556">
   <path d="m0,800l800,0l0,-800l-800,0l0,800z" id="path554"/>
  </clipPath>
  <radialGradient fx="0" fy="0" cx="0" cy="0" r="1" gradientUnits="userSpaceOnUse" gradientTransform="matrix(179.47583,26.300709,26.300709,-179.47583,674.16541,425.70261)" spreadMethod="pad" id="radialGradient278">
   <stop stop-color="#ffffff" offset="0" id="stop272"/>
   <stop stop-color="#ffffff" offset="0.216043" id="stop274"/>
   <stop stop-color="#e6e7e8" offset="1" id="stop276"/>
  </radialGradient>
  <linearGradient x1="0" y1="0.5" x2="1.000002" y2="0.5" spreadMethod="pad" id="linearGradient320">
   <stop stop-color="#f6ab36" offset="0" id="stop314"/>
   <stop stop-color="#ffde57" offset="0.5" id="stop316"/>
   <stop stop-color="#f6ab36" offset="1" id="stop318"/>
  </linearGradient>
 </defs>
 <g>
  <title>background</title>
  <rect fill="none" id="canvas_background" height="545.6667" width="232" y="-1" x="-1"/>
 </g>
 <g>
  <title>Layer 1</title>
  <g id="g10" transform="matrix(1.3333333,0,0,-1.3333333,0,1066.6667) ">
   <g id="g248">
    <g id="g250" clip-path="url(#clipPath254)">
     <g id="g256">
      <path fill="none" stroke="#f6ab36" stroke-width="2" stroke-linecap="round" stroke-miterlimit="10" d="m82.926457,656.024079c0,0 7.747,12.153 17.231,-0.077" id="path258"/>
     </g>
    </g>
   </g>
   <g id="g260">
    <g id="g262" clip-path="url(#clipPath266)">
     <g id="g268">
      <g id="g270">
       <path fill="url(#radialGradient278)" d="m41.787086,652.466151l-30.668,-50.16c-1.794,-2.934 -2.75,-6.303 -2.766,-9.742l0,0l-0.853,-190.251c-0.02,-4.321 3.467,-7.84 7.787,-7.858l0,0l142.452,-0.639c4.319,-0.019 7.837,3.466 7.857,7.786l0,0l0.853,190.253c0.015,3.439 -0.911,6.816 -2.678,9.766l0,0l-30.215,50.433c-1.396,2.33 -3.908,3.761 -6.623,3.772l0,0l-78.489,0.352c-0.012,0 -0.025,0 -0.036,0l0,0c-2.703,0 -5.211,-1.405 -6.621,-3.712m45.747,-30.639c-4.924,0.022 -8.897,4.031 -8.876,8.955l0,0c0.023,4.924 4.032,8.898 8.956,8.876l0,0c4.924,-0.023 8.898,-4.032 8.876,-8.956l0,0c-0.022,-4.91 -4.01,-8.875 -8.914,-8.875l0,0c-0.014,0 -0.028,0 -0.042,0" id="path280"/>
      </g>
     </g>
    </g>
   </g>
   <g id="g290">
    <g id="g292" clip-path="url(#clipPath296)">
     <g id="g298">
      <path fill="#f6ab36" fill-rule="nonzero" d="m89.119206,779.931123c-26.753,-13.214 -22.489,-26.548 -14.004,-53.075c5.99,-18.726 13.994,-43.754 13.882,-78.794c12.689,35.825 37.579,111.241 19.816,129.636c-4.168,4.315 -10.798,5.063 -19.694,2.233m-2.084,-144.059c-0.111,0 -0.221,0.009 -0.333,0.033c-0.82,0.163 -1.396,0.902 -1.357,1.739c1.946,40.049 -6.951,67.869 -13.449,88.183c-8.511,26.61 -13.648,42.672 15.842,57.191c0.074,0.037 0.15,0.068 0.229,0.093c10.29,3.303 18.123,2.27 23.276,-3.065c18.862,-19.533 -3.82,-90.844 -22.522,-142.785l-0.099,-0.272c-0.244,-0.68 -0.887,-1.117 -1.587,-1.117" id="path300"/>
     </g>
    </g>
   </g>
   <g id="g302">
    <g id="g304" clip-path="url(#clipPath308)">
     <g id="g310">
      <g id="g312">
       <path fill="url(#linearGradient320)" d="m8.032086,520.832151l-0.532,-118.519c-0.02,-4.321 3.467,-7.84 7.787,-7.858l0,0l142.452,-0.639c4.319,-0.019 7.837,3.466 7.857,7.786l0,0l0.534,119.164c-23.631,7.262 -50.563,11.38 -79.156,11.38l0,0c-28.505,0 -55.362,-4.094 -78.942,-11.314" id="path322"/>
      </g>
     </g>
    </g>
   </g>
  </g>
  <text font-style="italic" font-weight="bold" xml:space="preserve" text-anchor="start" font-family="Helvetica, Arial, sans-serif" font-size="57" id="svg_1" y="424.666783" x="11.984375" stroke-width="0" stroke="#000" fill="#ffffff">1500,55</text>
  <text stroke="#000" xml:space="preserve" text-anchor="start" font-family="Helvetica, Arial, sans-serif" font-size="92" id="svg_2" y="509.677191" x="89.421875" stroke-width="0" fill="#ffffff">€</text>
 </g>
</svg>