<?xml version="1.0"?>
<svg xmlns="http://www.w3.org/2000/svg" viewBox="0 0 512 512" width="512px" height="512px"><path d="m331 346c0 8.277344 6.722656 15 15 15s15-6.722656 15-15-6.722656-15-15-15-15 6.722656-15 15zm0 0" fill="#ffb43c"/><path d="m301 211v30h78.589844l-13.332032-30zm0 0" fill="#ffb43c"/><path d="m388.238281 331h2.761719v-60h-90v60h2.761719c6.214843-17.421875 22.707031-30 42.238281-30s36.023438 12.578125 42.238281 30zm0 0" fill="#ffb43c"/><path d="m91 361v-210h200.863281l102.492188-108.894531c-39.894531-25.898438-87.347657-42.105469-138.355469-42.105469-140.609375 0-256 115.390625-256 256 0 56.527344 19.714844 108.636719 50.957031 150.957031l43.253907-45.957031zm0 0" fill="#ffb43c"/><path d="m208.238281 331h62.761719v-114.046875l-84.152344 89.410156c9.910156 5.234375 17.582032 13.960938 21.390625 24.636719zm0 0" fill="#ffb43c"/><path d="m418.796875 59.921875-113.957031 121.078125h80.902344l35.257812 82.5v97.5h-32.761719c-6.214843 17.421875-22.707031 30-42.238281 30s-36.023438-12.578125-42.238281-30h-95.523438c-6.214843 17.421875-22.707031 30-42.238281 30-16.28125 0-30.433594-8.769531-38.335938-21.753906l-57.371093 60.953125c46.550781 49.597656 112.476562 81.800781 185.707031 81.800781 140.609375 0 256-115.390625 256-256 0-78.761719-36.921875-149.265625-93.203125-196.078125zm0 0" fill="#ffb43c"/><path d="m163.109375 331.585938-11.710937 12.441406c-.09375.675781-.398438 1.273437-.398438 1.972656 0 8.277344 6.722656 15 15 15s15-6.722656 15-15-6.722656-15-15-15c-1.023438 0-1.921875.386719-2.890625.585938zm0 0" fill="#ffb43c"/><path d="m121 181v150h1.445312l1.96875-2.089844c4.171876-10.113281 11.980469-18.246094 21.730469-23.089844l117.480469-124.820312zm0 0" fill="#ffb43c"/></svg>
