<?xml version="1.0" encoding="utf-8"?>
<!-- Generator: Adobe Illustrator 19.2.0, SVG Export Plug-In . SVG Version: 6.00 Build 0)  -->
<svg version="1.1" id="Ebene_1" xmlns="http://www.w3.org/2000/svg" xmlns:xlink="http://www.w3.org/1999/xlink" x="0px" y="0px"
	 viewBox="0 0 289 379" style="enable-background:new 0 0 289 379;" xml:space="preserve">
<style type="text/css">
	.st0{fill:#E8E8E8;}
	.st1{fill:#828A98;}
	.st2{fill:#FCFCFC;stroke:#828A98;stroke-miterlimit:10;}
</style>
<ellipse class="st0" cx="153.5" cy="346.5" rx="133.5" ry="28.5"/>
<path class="st1" d="M240.5,222.2l-1-2.2c-20-25.2-46.5-26.5-46.5-26.5s0,0-1.5-2.5c-7-14-17.2-6.2-22-4c-7-5.8-21-5-21-5
	s1.2-4.2,1-8c25-2,54.2-9,63-12c6.8-4.8,9-12,9-12s0.5-7,1-11c4-0.2,7.8-0.2,8-3c4.2-25.8-1.2-45.7-4-57s-12-5-12-5l-3,2.1l-1-0.9
	c0,0,0.2-1.5,0-11.8c1.8-10-8-9.5-8-9.5s-15.2,0-26,0c1-7-2-8.5-2-8.5s-50.2,0.8-56,0.5c0.5-17.2-7-25-7-25s5.2-2.8,3-11s-11-8-11-8
	s-10.2,2.2-10,10s6,10.5,10,12c7.8,10.2,5.8,18.2,5,23c-33,0.8-50,10-50,10s-1.2,4.5-2,9c-13.2-2.2-31,9-31,9s0.5,12.5,0,19
	c-2.8-2.5-1.2-0.8-7-3c-11.8,9.2-1,55-1,55c1.5,7.8-1.5,9.3-4,13C9,165.6,11,171,11,172.7c0,0.2,0,0.3,0.1,0.5
	c0.2,0.8,0.9,3.5,2.4,7.8c2.5,6.9,5,9,12,17c13.8,16.5,32,17,32,17s17.2,1.3,26,1.1c5,6.2,18,7.1,18,7.1s0.8,32,1,41.2s4,8.5,4,8.5
	h6.2c0,0-0.2,0.8-1.2,8.5c-1.2,9-4.8,13.8-12,22.5s-9,17-9,17s-2,13.5-1,26c23,12.2,42,1,42,1s-0.5-13-2-24c0.2-10-4-15-4-15
	s1.8-16.2,4-24c25.5,10.8,46-3,46-3s0,2,1,12s4,13.8,5,17c-5.2,2-5,12-5,12s-1.2,17,0,25c20.8,10.8,36.8,1.5,40-1
	c4.8-14.2-4-33.8-7-42c-2-6.8-9.2-6-9.2-6l-0.8-2c-8.2-8.5-11-27-11-30c4.5-0.8,6-1,7-5c0.2-12.8-9.2-49.8-9.2-49.8l2.2-1.2
	c17.8-0.8,27.8,9.5,36,16c11,16,7,20,7,20l-3,4c0,0-2.8,6-2,12c9,12,16,0.8,16,0.8l2,0.2c9,7.8,12-2,12-2s0.8-2.2,1-18
	C254.8,226,240.5,222.2,240.5,222.2z M124.5,186c-7-0.3-17,11-17,11s-5.4-3.9-11-4c-5.7-0.1-9,6.5-13,8c-28,6.5-36.5-10.5-37-15
	c5-3,8-7,8-7l35,1l36-2C125.5,178,126.8,183.9,124.5,186z"/>
<path class="st2" d="M120.2,112.9c0.2-1.1-0.3-2.1-0.4-3.1c-0.5-2.9-1.4-5.7-2.4-8.4c-1.5-3.9-3.8-7.1-6.3-10.4
	c-1.8-2.3-3.9-4.3-6.2-6c-2.8-2.1-5.8-3.8-9-5c-1.9-0.8-3.9-1.6-5.9-2c-2.7-0.5-5.4-1.1-8.2-1c-1.6,0-3.2-0.1-4.8,0.1
	c-3.3,0.6-6.5,1.1-9.7,2.3c-2.6,0.9-4.9,2.3-7.3,3.5c-1,0.5-1.9,1.1-2.8,1.8c-3.6,3.1-7.2,6.4-9.7,10.5c-1.1,1.8-2.4,3.6-3.1,5.6
	c-1.2,3.1-2.2,6.3-2.7,9.7c-0.4,2.7-0.6,5.4-0.4,8.1c0.2,3.4,0.8,6.9,1.9,10.2c0.8,2.6,1.9,5,3.2,7.3c1.7,2.9,3.7,5.6,6.1,8.1
	c0.4,0.4,0.8,0.8,0.3,1.4c-2.1,2.5-4.1,5-6.2,7.5c-0.4,0.5-0.7,0.5-1.2,0.1c-1.7-1.5-5-1.3-6.7,0.8c-2.1,2.5-4.1,5.1-6.1,7.6
	c0.8,7.2,7.5,11.4,15,11.8c1.8-2.2,3.6-4.5,5.5-6.7c2.3-2.7,1.9-5.9-0.3-7.8c-0.5-0.4-0.3-0.7,0-1.1c2.1-2.5,4.2-5,6.2-7.5
	c0.4-0.5,0.6-0.6,1-0.2c0.9,0.8,2.1,1.3,3.2,1.8c1.9,0.9,3.8,1.9,5.8,2.5c2.3,0.7,4.7,1.1,7.2,1.5c2.9,0.4,5.8,0.5,8.6,0.2
	c3.2-0.3,6.4-1,9.6-2.2c4.2-1.6,8.1-3.6,11.6-6.5c2.1-1.8,4.1-3.6,5.8-5.7c2.7-3.4,4.9-7,6.5-11.1c0.8-2,1.5-4.1,1.8-6.2
	C120.4,120.7,120.8,116.8,120.2,112.9z M104.7,122.8c-0.5,2.1-1.3,4.1-2.4,6c-2.4,4.4-6.1,7.5-10.3,9.9c-2,1.1-4.2,1.7-6.4,2.2
	c-4.1,0.8-8.2,0.5-12.2-0.6c-1.9-0.6-3.7-1.5-5.3-2.5c-2.8-1.8-5.2-4-7.3-6.6c-0.6-0.8-1.1-1.6-1.5-2.5c-1.6-3.2-2.7-6.5-2.9-10.2
	c-0.2-2.6,0-5.1,0.6-7.5c0.5-2.1,1.4-4.2,2.4-6.1c2.4-4.6,6.2-7.8,10.6-10.2c2.1-1.1,4.4-1.8,6.8-2.2c3.9-0.7,7.7-0.3,11.5,0.7
	c2,0.5,3.7,1.6,5.5,2.6c2.9,1.7,5.1,4.2,7.3,6.7c0.6,0.6,0.9,1.4,1.3,2.2c1.5,3.1,2.7,6.3,3,10.5
	C105.8,117.3,105.3,120.1,104.7,122.8z"/>
<path class="st2" d="M14.9,182C14.9,182,14.9,182,14.9,182c-3.6,4.5-7.1,9-10.7,13.5c-1.8,2.3-1.6,5.3,0.8,7.1c1.3,1,2.6,2.1,4,3.1
	c1.2,1,2.4,1.9,3.7,2.8c1.8,1.3,4.2,1,5.7-0.5c1.9-1.9,3.5-4.2,5.2-6.3c1-1.3,2-2.5,3.1-3.7C21.1,194.1,18.3,188.1,14.9,182z"/>
</svg>
