<svg width="40" height="40" viewBox="0 0 288 464" xmlns="http://www.w3.org/2000/svg">

 <g>
  <title>background</title>
  <rect fill="none" id="canvas_background" height="402" width="582" y="-1" x="-1"/>
  <circle xmlns="http://www.w3.org/2000/svg" cx="148" cy="143" r="120" stroke="black" stroke-width="0" fill="white"/>
 </g>
 <g>
  <title>Layer 1</title>
  <path id="svg_1" fill="#f6ab3d" d="m245,143c0,53.01953 -42.98047,96 -96,96s-96,-42.98047 -96,-96s42.98047,-96 96,-96s96,42.98047 96,96zm0,0"/>
  <path id="svg_2" fill="#f6ab3d" d="m144,0c-79.39844,0 -144,64.60156 -144,144l0,1.03906c0,38.46485 14.97656,74.625 42.17578,101.83203l12.38281,12.38672c42.48829,42.48438 69.77735,96.32813 78.91407,155.71875c0.80859,5.23047 5.23047,9.03125 10.51953,9.03125c5.28906,0 9.71875,-3.80078 10.51953,-9.03125c9.14453,-59.39062 36.43359,-113.23437 78.91406,-155.71875l12.38281,-12.38672c27.19922,-27.19921 42.17579,-63.36718 42.17579,-101.83203l0,-1.03906c0.01562,-79.39844 -64.58594,-144 -143.98438,-144zm-24,288l-16,0l0,-16l16,0l0,16zm32,0l-16,0l0,-16l16,0l0,16zm32,0l-16,0l0,-16l16,0l0,16zm-40,-32c-61.76172,0 -112,-50.23828 -112,-112s50.23828,-112 112,-112s112,50.23828 112,112s-50.23828,112 -112,112zm0,0"/>
  <path id="svg_3" fill="#f6ab3d" d="m181.45703,372.39063c-1.71484,5.05859 -3.21094,10.19531 -4.61719,15.37109c22.94532,5.61328 39.16016,16.91797 39.16016,28.23828c0,15.13672 -29.56641,32 -72,32s-72,-16.86328 -72,-32c0,-11.32031 16.21484,-22.63281 39.16797,-28.23047c-1.40625,-5.17578 -2.90234,-10.3125 -4.625,-15.3789c-30.71875,7.63281 -50.54297,24.3125 -50.54297,43.60937c0,26.91016 38.65625,48 88,48s88,-21.08984 88,-48c0,-19.28906 -19.82422,-35.96875 -50.54297,-43.60937zm0,0"/>
  <g stroke="null" id="svg_26">
   <g stroke="null" transform="matrix(0.3838897448390247,0,0,0.36132674601031084,-281.51687513968096,-208.6059744244742) " id="svg_8">
    <g stroke="null" id="svg_9">
     <path fill="#ffffff" stroke="null" id="svg_10" d="m1305.168865,1003.074707l-26.899,0l0,112.602l-75.899,-75.899c20.8,-36.101 15.898,-83.2 -14.7,-113.8c-18.399,-18.4 -42.8,-27.5 -66.7,-27.5c-23.9,0 -48.3,9.2 -66.7,27.5c-37.3,36.701 -37.3,96.701 0,134c30.6,30.601 77.7,35.5 113.8,14.701l88.698,88.698c-5.5,2.4 -11,4.301 -17.698,4.301l-236.8,0c-22,0 -39.8,-17.701 -39.8,-39.801l0,-124.2l-26.3,0c-30.6,0 -50.8,-36.701 -23.9,-64.301l159.1,-162.2c13.5,-14.1 31.2,-20.8 49,-20.8c17.7,0 35.5,6.7 49,20.8l36.1,36.7l0,-31.8c0,-14.1 11.602,-25.1 25.7,-25.1l21.4,0c14.1,0 25.1,11 25.1,25.1l0,106.5l50.2,51.4c26.898,25.8 7.298,63.099 -22.702,63.099zm-217.799,-42.799c-17.7,17.7 -17.7,46.5 0,64.299c17.7,17.801 46.5,17.701 64.3,0c17.7,-17.699 17.7,-47.101 0,-64.299c-9.2,-9.2 -20.8,-13.5 -32.4,-13.5c-11.101,0 -22.8,4.3 -31.9,13.5z"/>
    </g>
   </g>
   <g stroke="null" transform="matrix(0.3838897448390247,0,0,0.36132674601031084,-281.51687513968096,-208.6059744244742) " id="svg_11"/>
   <g stroke="null" transform="matrix(0.3838897448390247,0,0,0.36132674601031084,-281.51687513968096,-208.6059744244742) " id="svg_12"/>
   <g stroke="null" transform="matrix(0.3838897448390247,0,0,0.36132674601031084,-281.51687513968096,-208.6059744244742) " id="svg_13"/>
   <g stroke="null" transform="matrix(0.3838897448390247,0,0,0.36132674601031084,-281.51687513968096,-208.6059744244742) " id="svg_14"/>
   <g stroke="null" transform="matrix(0.3838897448390247,0,0,0.36132674601031084,-281.51687513968096,-208.6059744244742) " id="svg_15"/>
   <g stroke="null" transform="matrix(0.3838897448390247,0,0,0.36132674601031084,-281.51687513968096,-208.6059744244742) " id="svg_16"/>
   <g stroke="null" transform="matrix(0.3838897448390247,0,0,0.36132674601031084,-281.51687513968096,-208.6059744244742) " id="svg_17"/>
   <g stroke="null" transform="matrix(0.3838897448390247,0,0,0.36132674601031084,-281.51687513968096,-208.6059744244742) " id="svg_18"/>
   <g stroke="null" transform="matrix(0.3838897448390247,0,0,0.36132674601031084,-281.51687513968096,-208.6059744244742) " id="svg_19"/>
   <g stroke="null" transform="matrix(0.3838897448390247,0,0,0.36132674601031084,-281.51687513968096,-208.6059744244742) " id="svg_20"/>
   <g stroke="null" transform="matrix(0.3838897448390247,0,0,0.36132674601031084,-281.51687513968096,-208.6059744244742) " id="svg_21"/>
   <g stroke="null" transform="matrix(0.3838897448390247,0,0,0.36132674601031084,-281.51687513968096,-208.6059744244742) " id="svg_22"/>
   <g stroke="null" transform="matrix(0.3838897448390247,0,0,0.36132674601031084,-281.51687513968096,-208.6059744244742) " id="svg_23"/>
   <g stroke="null" transform="matrix(0.3838897448390247,0,0,0.36132674601031084,-281.51687513968096,-208.6059744244742) " id="svg_24"/>
   <g stroke="null" transform="matrix(0.3838897448390247,0,0,0.36132674601031084,-281.51687513968096,-208.6059744244742) " id="svg_25"/>
  </g>
 </g>
</svg>