<?xml version="1.0"?>
<svg xmlns="http://www.w3.org/2000/svg" height="512px" viewBox="-47 0 403 403.1" width="512px"><path d="m259.351562 33-50-33-49.5 32.898438c-3.375 2.203124-7.730468 2.203124-11.101562 0l-49.398438-32.796876-50 33c-3.378906 2.21875-7.765624 2.179688-11.101562-.101562l-38.1992188-26v396.101562h308.5976568v-396.101562l-38.199219 26c-3.355469 2.25-7.742188 2.25-11.097657 0zm-24 319.601562h-162c-5.523437 0-10-4.480468-10-10 0-5.523437 4.476563-10 10-10h162c5.519532 0 10 4.476563 10 10 0 5.519532-4.480468 10-10 10zm-81-45c-64.617187 0-117-52.382812-117-117 0-64.617187 52.382813-117 117-117 64.617188 0 117 52.382813 117 117-.085937 64.582032-52.417968 116.914063-117 117zm0 0" fill="#f6ab36"/><path d="m154.351562 93.601562c-53.574218 0-97 43.425782-97 97 0 53.570313 43.425782 97 97 97 53.570313 0 97-43.429687 97-97-.050781-53.550781-43.449218-96.949218-97-97zm30.097657 75.199219c5.523437 0 10 4.476563 10 10 0 5.523438-4.476563 10-10 10h-57.597657v1.800781c0 1.296876.097657 2.5.199219 3.699219h51.597657c5.523437 0 10 4.476563 10 10 0 5.523438-4.476563 10-10 10h-45.398438c2.027344 3.515625 4.515625 6.742188 7.398438 9.597657 13.21875 13.203124 32.960937 17.394531 50.402343 10.703124 5.136719-1.988281 10.910157.5625 12.898438 5.699219s-.5625 10.910157-5.699219 12.898438c-24.800781 9.566406-52.914062 3.605469-71.699219-15.199219-6.746093-6.765625-11.992187-14.875-15.402343-23.800781h-11c-5.519532 0-10-4.476563-10-10 0-5.523438 4.480468-10 10-10h6.800781c-.097657-1.199219-.097657-2.5-.097657-3.699219v-1.800781h-6.703124c-5.519532 0-10-4.476563-10-10 0-5.523438 4.480468-10 10-10h10.203124c3.304688-9.695313 8.816407-18.496094 16.097657-25.699219 18.808593-18.773438 46.894531-24.726562 71.699219-15.199219 5.136718 1.988281 7.691406 7.761719 5.703124 12.898438-1.988281 5.136719-7.765624 7.6875-12.902343 5.699219-22.445313-8.636719-47.800781.964843-58.898438 22.300781zm0 0" fill="#f6ab36"/></svg>
