<svg viewBox="0 0 200 150" xmlns="http://www.w3.org/2000/svg">
 <!-- Created with Method Draw - http://github.com/duopixel/Method-Draw/ -->

 <g>
  <title>background</title>
  <rect fill="#fff" id="canvas_background" height="152" width="202" y="-1" x="-1"/>
 </g>
 <g>
  <title>Layer 1</title>
  <style type="text/css">.st0{fill:#EB7194;}
	.st1{fill:#CCCBCB;}
	.st2{fill:#FFFFFF;}</style>
  <g id="svg_19">
   <g id="svg_5">
    <g id="svg_6">
     <path id="svg_7" d="m27,18l146,0c9.4,0 17,7.6 17,17l0,80c0,9.4 -7.6,17 -17,17l-146,0c-9.4,0 -17,-7.6 -17,-17l0,-80c0,-9.4 7.6,-17 17,-17z" class="st0"/>
     <path id="svg_8" d="m173.4,18.7c8.8,0 15.9,7.1 15.9,15.9l0,80.8c0,8.8 -7.1,15.9 -15.9,15.9l-146.8,0c-8.8,0 -15.9,-7.1 -15.9,-15.9l0,-80.8c0,-8.8 7.1,-15.9 15.9,-15.9l146.8,0m0,-0.7l-146.8,0c-9.2,0 -16.6,7.4 -16.6,16.6l0,80.8c0,9.2 7.4,16.6 16.6,16.6l146.8,0c9.2,0 16.6,-7.4 16.6,-16.6l0,-80.8c0,-9.2 -7.4,-16.6 -16.6,-16.6z" class="st1"/>
    </g>
    <g id="svg_9">
     <path id="svg_10" d="m66.7,99.6l-5.4,0c0,4.4 -2,8.4 -5.5,11l-2.1,1.6l8.2,11.1l6.7,0l-7.6,-10.2c3.6,-3.6 5.7,-8.3 5.7,-13.5z" class="st2"/>
     <rect id="svg_11" height="23.7" width="5.5" class="st2" y="99.6" x="47.5"/>
     <rect id="svg_12" height="23.7" width="5.2" class="st2" y="99.6" x="70.2"/>
     <path id="svg_13" d="m120.7,106.5c-2,0 -3.9,0.6 -5.1,2.3l0,-1.9l-4.9,0l0,16.4l5,0l0,-8.6c0,-2.5 1.7,-3.7 3.7,-3.7c2.2,0 3.4,1.3 3.4,3.7l0,8.7l4.9,0l0,-10.4c0,-3.9 -3,-6.5 -7,-6.5z" class="st2"/>
     <path id="svg_14" d="m91,108c-1.4,-1 -3.1,-1.5 -4.9,-1.5c-4.8,0 -8.7,3.9 -8.7,8.7c0,4.8 3.9,8.7 8.7,8.7c1.8,0 3.5,-0.5 4.9,-1.5l0,1l4.9,0l0,-16.4l-4.9,0l0,1zm-4.5,11.3c-2.5,0 -4.5,-1.9 -4.5,-4.2s2,-4.2 4.5,-4.2c2.5,0 4.5,1.9 4.5,4.2s-2,4.2 -4.5,4.2z" class="st2"/>
     <path id="svg_15" d="m103.6,109.1l0,-2.1l-5,0l0,16.4l5.1,0l0,-7.7c0,-2.6 2.8,-4 4.8,-4c0,0 0,0 0,0l0,-4.8c-2.1,0 -3.9,0.9 -4.9,2.2z" class="st2"/>
     <path id="svg_16" d="m143,108c-1.4,-1 -3.1,-1.5 -4.9,-1.5c-4.8,0 -8.7,3.9 -8.7,8.7c0,4.8 3.9,8.7 8.7,8.7c1.8,0 3.5,-0.5 4.9,-1.5l0,1l4.9,0l0,-16.4l-4.9,0l0,1zm-4.4,11.3c-2.5,0 -4.5,-1.9 -4.5,-4.2s2,-4.2 4.5,-4.2c2.5,0 4.5,1.9 4.5,4.2c-0.1,2.4 -2.1,4.2 -4.5,4.2z" class="st2"/>
     <path id="svg_17" d="m153.2,117.5c-1.7,0 -3.1,1.4 -3.1,3.1s1.4,3.1 3.1,3.1c1.7,0 3.1,-1.4 3.1,-3.1c0,-1.7 -1.4,-3.1 -3.1,-3.1z" class="st2"/>
     <path id="svg_18" d="m82.2,74.8c0.3,10.7 8.9,18.2 19.1,18.4c0,0 0.1,0 0.1,0c0.1,0 0.1,0 0.2,0c0,0 0.1,0 0.1,0s0,0 0,0c14.4,0 20.7,-8.5 21.7,-21.3c0.3,-4 -0.4,-6.8 -2,-8.5c-0.9,-0.9 -1.8,-1.3 -2.5,-1.4l-2.4,-0.6l5.6,-27.9c0.7,-3.1 -1.2,-6.3 -4.3,-7.2c-3.5,-0.9 -6.9,1.2 -7.8,4.5l-5,17.6l-4,-17.1c-0.3,-1.6 -1.3,-3 -2.7,-3.9c-1.4,-0.9 -3.1,-1.2 -4.7,-0.9c-3.1,0.7 -5.2,4.4 -4.4,7.7l2.4,19.4c-2,-2 -4.4,-2.7 -7.2,-1.1l-0.4,0.1c-2.5,1.7 -3,5.2 -1.4,8.5c-1.3,0.1 -2.7,0.6 -3.7,1.7l-0.2,0.2c-2.3,2.4 -1.9,6.4 1,9.4l2.5,2.4zm36.3,-10.2c0.1,0 0.2,0 0.3,0.1c0.2,0.1 0.5,0.3 0.8,0.6c1,1.1 1.6,3.1 1.3,6.5c-1,11.7 -6.4,19 -19.3,19c-8.1,0 -14.9,-5.2 -16.5,-13l1.9,1.9c2.3,2.2 6,2.2 8.3,-0.1l0.3,-0.3c1.8,-1.9 2.1,-4.6 0.9,-6.8c0.2,-0.1 0.4,-0.2 0.6,-0.3l0.3,-0.2c0.7,-0.4 1.2,-1 1.6,-1.7c0.9,0.5 1.9,0.9 3.2,1.2l3.6,0.8c-2.7,1.5 -4.4,4.3 -4.6,8.6c0,0.7 0.5,1.3 1.2,1.3c0.7,0 1.3,-0.5 1.3,-1.2c0.2,-3.9 1.7,-6 4.1,-6.9c1.3,-0.5 2.7,-0.6 4,-0.5c0.2,0 0.3,0 0.3,0c1.7,0.3 2.2,-2.2 0.5,-2.5l-10,-2.2c-1.5,-0.4 -2.5,-0.8 -3.3,-1.3c-0.1,-0.2 -0.3,-0.3 -0.6,-0.4c-1.1,-1 -1.2,-2.4 -0.7,-4.1c0.4,-1.3 1.1,-1.9 2.3,-2.2c0.8,-0.2 1.6,-0.2 2.4,0c0.2,0 0.4,0.1 0.5,0.1l15.3,3.6zm-24.3,-35.6c0.9,-0.2 1.9,0 2.7,0.5c0.8,0.5 1.3,1.3 1.5,2.3l5.1,21.9c0,0.1 0.1,0.1 0.1,0.2c0,0.1 0,0.1 0.1,0.2c0,0.1 0.1,0.1 0.2,0.2s0.1,0.1 0.2,0.2c0.1,0 0.1,0.1 0.2,0.1c0.1,0 0.1,0.1 0.2,0.1c0,0 0.1,0 0.1,0c0,0 0.1,0 0.1,0c0.1,0 0.3,0 0.4,0c0,0 0,0 0,0s0,0 0,0c0.2,0 0.3,-0.1 0.4,-0.2c0,0 0,0 0,0c0.1,-0.1 0.2,-0.2 0.3,-0.3c0,0 0,0 0,-0.1c0,-0.1 0.1,-0.2 0.1,-0.3l6.5,-22.2c0.5,-2 2.6,-3.3 4.6,-2.8c1.7,0.5 2.8,2.3 2.4,4.2l-5.6,27.9l-10,-2.4c-0.1,0 -0.3,-0.1 -0.7,-0.2c-1.1,-0.2 -2.3,-0.2 -3.4,0c-1.4,0.3 -2.5,1 -3.3,2.1l-1.9,-2.8l-3,-24l0,-0.2c-0.2,-1.8 1.1,-4.1 2.7,-4.4zm-8.7,25.8l0.3,-0.2c1.9,-1.1 3.5,-0.3 5.2,2.2l1.3,2c0,0.1 0.1,0.1 0.1,0.2l3,4.4c-0.4,2 0,3.9 1.3,5.3c-0.2,0.4 -0.5,0.8 -1,1l-0.2,0.3c-1.5,1 -3.5,0.6 -4.5,-0.9l-5.7,-8.4c-1.5,-2.4 -1.3,-4.9 0.2,-5.9zm-4.9,10.1l0.3,-0.3c1,-1 2.7,-1.2 3.8,-0.3l4.2,6.2c1.2,1.7 3,2.6 4.9,2.6c1,1.3 1,3.1 -0.2,4.3l-0.2,0.3c-1.2,1.3 -3.3,1.3 -4.6,0.1l-7.2,-7.1c-2,-2.1 -2.3,-4.5 -1,-5.8z" class="st2"/>
    </g>
   </g>
  </g>
 </g>
</svg>