<?xml version="1.0" encoding="UTF-8"?>
<svg width="20px" height="21px" viewBox="0 0 20 21" version="1.1" xmlns="http://www.w3.org/2000/svg" xmlns:xlink="http://www.w3.org/1999/xlink">
    <!-- Generator: Sketch 50.2 (55047) - http://www.bohemiancoding.com/sketch -->
    <title>login - simple-line-icons</title>
    <desc>Created with Sketch.</desc>
    <defs></defs>
    <g id="Page-1" stroke="none" stroke-width="1" fill="none" fill-rule="evenodd">
        <g id="icons-2-copy" transform="translate(-86.000000, -365.000000)" fill="#636363">
            <path d="M96.4101562,378.160156 L98.6953125,375.875 L86.625,375.875 C86.4557283,375.875 86.3092454,375.813152 86.1855469,375.689453 C86.0618483,375.565755 86,375.419272 86,375.25 C86,375.067707 86.0618483,374.917969 86.1855469,374.800781 C86.3092454,374.683593 86.4557283,374.625 86.625,374.625 L98.65625,374.625 L96.4101562,372.359375 C96.2799473,372.242187 96.2148438,372.095704 96.2148438,371.919922 C96.2148438,371.74414 96.2799473,371.597657 96.4101562,371.480469 C96.5273443,371.35026 96.6705721,371.285156 96.8398438,371.285156 C97.0091154,371.285156 97.1588535,371.35026 97.2890625,371.480469 L100.980469,375.269531 L97.2890625,379.058594 C97.223958,379.110677 97.1523441,379.152995 97.0742188,379.185547 C96.9960934,379.218099 96.9179691,379.234375 96.8398438,379.234375 C96.7617184,379.234375 96.6835941,379.218099 96.6054688,379.185547 C96.5273434,379.152995 96.4622398,379.110677 96.4101562,379.058594 C96.2799473,378.928385 96.2148438,378.778647 96.2148438,378.609375 C96.2148438,378.440103 96.2799473,378.290365 96.4101562,378.160156 Z M104.75,365.25 C105.101564,365.25 105.397785,365.370442 105.638672,365.611328 C105.879558,365.852215 106,366.148436 106,366.5 L106,384 C106,384.351564 105.879558,384.647785 105.638672,384.888672 C105.397785,385.129558 105.101564,385.25 104.75,385.25 L93.5,385.25 C93.1614566,385.25 92.8684908,385.129558 92.6210938,384.888672 C92.3736967,384.647785 92.25,384.351564 92.25,384 L92.25,378.355469 L93.5195312,378.355469 L93.5195312,383.238281 C93.5195312,383.446616 93.5911451,383.62565 93.734375,383.775391 C93.8776049,383.925131 94.0533844,384 94.2617188,384 L103.988281,384 C104.196616,384 104.37565,383.925131 104.525391,383.775391 C104.675131,383.62565 104.75,383.446616 104.75,383.238281 L104.730469,367.261719 C104.730469,367.053384 104.6556,366.87435 104.505859,366.724609 C104.356119,366.574869 104.177084,366.5 103.96875,366.5 L94.2617188,366.5 C94.0533844,366.5 93.8776049,366.574869 93.734375,366.724609 C93.5911451,366.87435 93.5195312,367.053384 93.5195312,367.261719 L93.5195312,372.125 L92.25,372.125 L92.25,366.5 C92.25,366.148436 92.3736967,365.852215 92.6210938,365.611328 C92.8684908,365.370442 93.1614566,365.25 93.5,365.25 L104.75,365.25 Z" id="login---simple-line-icons"></path>
        </g>
    </g>
</svg>