<svg width="40" height="40" viewBox="0 0 288 464" xmlns="http://www.w3.org/2000/svg">

 <g>
  <title>background</title>
  <rect fill="none" id="canvas_background" height="402" width="582" y="-1" x="-1"/>
 </g>
 <g>
  <title>Layer 1</title>
  <ellipse stroke="null" ry="128.49999" rx="138.000001" id="svg_53" cy="138.500002" cx="144.999999" stroke-opacity="null" stroke-width="null" fill="#ffffff"/>
  <path id="svg_1" fill="#f6ab3d" d="m245,143c0,53.01953 -42.98047,96 -96,96s-96,-42.98047 -96,-96s42.98047,-96 96,-96s96,42.98047 96,96zm0,0"/>
  <rect id="svg_56" height="36" width="110" y="264" x="90.5" fill-opacity="null" stroke-opacity="null" stroke-width="null" stroke="null" fill="#ffffff"/>
  <ellipse stroke="null" ry="41.000001" rx="73.500002" id="svg_57" cy="412.999999" cx="140.999998" fill-opacity="null" stroke-opacity="null" stroke-width="null" fill="#ffffff"/>
  <path id="svg_2" fill="#f6ab3d" d="m144,0c-79.39844,0 -144,64.60156 -144,144l0,1.03906c0,38.46485 14.97656,74.625 42.17578,101.83203l12.38281,12.38672c42.48829,42.48438 69.77735,96.32813 78.91407,155.71875c0.80859,5.23047 5.23047,9.03125 10.51953,9.03125c5.28906,0 9.71875,-3.80078 10.51953,-9.03125c9.14453,-59.39062 36.43359,-113.23437 78.91406,-155.71875l12.38281,-12.38672c27.19922,-27.19921 42.17579,-63.36718 42.17579,-101.83203l0,-1.03906c0.01562,-79.39844 -64.58594,-144 -143.98438,-144zm-24,288l-16,0l0,-16l16,0l0,16zm32,0l-16,0l0,-16l16,0l0,16zm32,0l-16,0l0,-16l16,0l0,16zm-40,-32c-61.76172,0 -112,-50.23828 -112,-112s50.23828,-112 112,-112s112,50.23828 112,112s-50.23828,112 -112,112zm0,0"/>
  <path id="svg_3" fill="#f6ab3d" d="m181.45703,372.39063c-1.71484,5.05859 -3.21094,10.19531 -4.61719,15.37109c22.94532,5.61328 39.16016,16.91797 39.16016,28.23828c0,15.13672 -29.56641,32 -72,32s-72,-16.86328 -72,-32c0,-11.32031 16.21484,-22.63281 39.16797,-28.23047c-1.40625,-5.17578 -2.90234,-10.3125 -4.625,-15.3789c-30.71875,7.63281 -50.54297,24.3125 -50.54297,43.60937c0,26.91016 38.65625,48 88,48s88,-21.08984 88,-48c0,-19.28906 -19.82422,-35.96875 -50.54297,-43.60937zm0,0"/>
  <g stroke="null" id="svg_52">
   <g stroke="null" transform="matrix(0.2807065211725551,0,0,0.261176823786362,-284.8304726748419,-303.63358671323095) " id="svg_31">
    <g stroke="null" id="svg_32">
     <path fill="#ffffff" stroke="null" id="svg_33" d="m1257.996425,1671.456901c-5.539,2.215 -9.248,7.49 -9.461,13.451c-0.212,5.963 3.115,11.488 8.482,14.09l176.547,85.623l305.658,-305.651l-481.226,192.487z"/>
    </g>
   </g>
   <g stroke="null" transform="matrix(0.2807065211725551,0,0,0.261176823786362,-284.8304726748419,-303.63358671323095) " id="svg_34">
    <g stroke="null" id="svg_35">
     <path fill="#ffffff" stroke="null" id="svg_36" d="m1454.870425,1805.927901l85.624,176.548c2.525,5.206 7.798,8.491 13.552,8.491c0.179,0 0.357,-0.003 0.538,-0.01c5.962,-0.212 11.237,-3.921 13.453,-9.46l192.49,-481.223l-305.657,305.654z"/>
    </g>
   </g>
   <g stroke="null" transform="matrix(0.2807065211725551,0,0,0.261176823786362,-284.8304726748419,-303.63358671323095) " id="svg_37"/>
   <g stroke="null" transform="matrix(0.2807065211725551,0,0,0.261176823786362,-284.8304726748419,-303.63358671323095) " id="svg_38"/>
   <g stroke="null" transform="matrix(0.2807065211725551,0,0,0.261176823786362,-284.8304726748419,-303.63358671323095) " id="svg_39"/>
   <g stroke="null" transform="matrix(0.2807065211725551,0,0,0.261176823786362,-284.8304726748419,-303.63358671323095) " id="svg_40"/>
   <g stroke="null" transform="matrix(0.2807065211725551,0,0,0.261176823786362,-284.8304726748419,-303.63358671323095) " id="svg_41"/>
   <g stroke="null" transform="matrix(0.2807065211725551,0,0,0.261176823786362,-284.8304726748419,-303.63358671323095) " id="svg_42"/>
   <g stroke="null" transform="matrix(0.2807065211725551,0,0,0.261176823786362,-284.8304726748419,-303.63358671323095) " id="svg_43"/>
   <g stroke="null" transform="matrix(0.2807065211725551,0,0,0.261176823786362,-284.8304726748419,-303.63358671323095) " id="svg_44"/>
   <g stroke="null" transform="matrix(0.2807065211725551,0,0,0.261176823786362,-284.8304726748419,-303.63358671323095) " id="svg_45"/>
   <g stroke="null" transform="matrix(0.2807065211725551,0,0,0.261176823786362,-284.8304726748419,-303.63358671323095) " id="svg_46"/>
   <g stroke="null" transform="matrix(0.2807065211725551,0,0,0.261176823786362,-284.8304726748419,-303.63358671323095) " id="svg_47"/>
   <g stroke="null" transform="matrix(0.2807065211725551,0,0,0.261176823786362,-284.8304726748419,-303.63358671323095) " id="svg_48"/>
   <g stroke="null" transform="matrix(0.2807065211725551,0,0,0.261176823786362,-284.8304726748419,-303.63358671323095) " id="svg_49"/>
   <g stroke="null" transform="matrix(0.2807065211725551,0,0,0.261176823786362,-284.8304726748419,-303.63358671323095) " id="svg_50"/>
   <g stroke="null" transform="matrix(0.2807065211725551,0,0,0.261176823786362,-284.8304726748419,-303.63358671323095) " id="svg_51"/>
  </g>
  <ellipse rx="1" id="svg_55" cy="200" cx="137.5" stroke-opacity="null" stroke-width="null" stroke="null" fill="#ffffff"/>
 </g>
</svg>