<?xml version="1.0" encoding="UTF-8" standalone="no"?>
<!DOCTYPE svg PUBLIC "-//W3C//DTD SVG 1.1//EN" "http://www.w3.org/Graphics/SVG/1.1/DTD/svg11.dtd">
<svg version="1.1" xmlns="http://www.w3.org/2000/svg" xmlns:xlink="http://www.w3.org/1999/xlink" preserveAspectRatio="xMidYMid meet"
    viewBox="0 0 640 640" width="30px" height="30px">
    <defs>
        <path d="M472.63 95.53C470.38 95.53 465.63 97.37 458.44 101.02C451.22 104.67 443.54 108.74 435.48 113.28C427.4 117.79 417.83 121.88 406.77 125.53C395.74 129.18 385.53 131.02 376.13 131.02C367.43 131.02 359.79 129.37 353.18 126.06C331.28 115.81 312.22 108.15 296.05 103.1C279.88 98.06 262.49 95.53 243.87 95.53C211.73 95.53 175.11 105.98 134.06 126.85C125.59 131.07 119.52 134.35 115.59 136.74C115.2 133.88 112.08 111 111.69 108.14C120.5 100.49 126.19 89.34 126.19 76.75C126.19 53.69 107.5 35 84.44 35C61.38 35 42.69 53.69 42.69 76.75C42.69 91.79 50.72 104.87 62.65 112.22C68.29 153.57 113.41 484.4 119.05 525.75C120.73 538.06 131.26 547 143.35 547C144.46 547 145.58 546.91 146.7 546.79C160.15 544.94 169.56 532.57 167.72 519.13C165.45 502.51 147.32 369.55 145.05 352.93C186.18 332.53 221.76 322.24 251.68 322.24C264.39 322.24 276.78 324.12 288.85 327.97C300.94 331.81 311 335.95 318.99 340.46C326.96 344.99 336.41 349.18 347.28 352.98C358.16 356.81 368.9 358.73 379.5 358.73C406.28 358.73 438.34 348.64 475.74 328.47C480.44 326.03 483.87 323.63 486.05 321.3C488.23 318.95 489.31 315.6 489.31 311.26C489.31 291.36 489.31 132.13 489.31 112.23C489.31 107.72 487.67 103.8 484.38 100.49C481.06 97.19 477.16 95.53 472.63 95.53Z"
            id="b3PhmckIbo"></path>
        <path d="M446.63 80.53C444.38 80.53 439.63 82.37 432.44 86.02C425.22 89.67 417.54 93.74 409.48 98.28C401.4 102.79 391.83 106.88 380.77 110.53C369.74 114.18 359.53 116.02 350.13 116.02C341.43 116.02 333.79 114.37 327.18 111.06C305.28 100.81 286.22 93.15 270.05 88.1C253.88 83.06 236.49 80.53 217.87 80.53C185.73 80.53 149.11 90.98 108.06 111.85C99.59 116.07 93.52 119.35 89.59 121.74C89.2 118.88 86.08 96 85.69 93.14C94.5 85.49 100.19 74.34 100.19 61.75C100.19 38.69 81.5 20 58.44 20C35.38 20 16.69 38.69 16.69 61.75C16.69 76.79 24.72 89.87 36.65 97.22C42.29 138.57 87.41 469.4 93.05 510.75C94.73 523.06 105.26 532 117.35 532C118.46 532 119.58 531.91 120.7 531.79C134.15 529.94 143.56 517.57 141.72 504.13C139.45 487.51 121.32 354.55 119.05 337.93C160.18 317.53 195.76 307.24 225.68 307.24C238.39 307.24 250.78 309.12 262.85 312.97C274.94 316.81 285 320.95 292.99 325.46C300.96 329.99 310.41 334.18 321.28 337.98C332.16 341.81 342.9 343.73 353.5 343.73C380.28 343.73 412.34 333.64 449.74 313.47C454.44 311.03 457.87 308.63 460.05 306.3C462.23 303.95 463.31 300.6 463.31 296.26C463.31 276.36 463.31 117.13 463.31 97.23C463.31 92.72 461.67 88.8 458.38 85.49C455.06 82.19 451.16 80.53 446.63 80.53Z"
            id="dhiUh0aNB"></path>
    </defs>
    <g>
        <g>
            <g>
                <use xlink:href="#b3PhmckIbo" opacity="1" fill="#302b16" fill-opacity="0.5"></use>
                <g>
                    <use xlink:href="#b3PhmckIbo" opacity="1" fill-opacity="0" stroke="#000000" stroke-width="1" stroke-opacity="0"></use>
                </g>
            </g>
            <g>
                <use xlink:href="#dhiUh0aNB" opacity="1" fill="#ffde57" fill-opacity="1"></use>
                <g>
                    <use xlink:href="#dhiUh0aNB" opacity="1" fill-opacity="0" stroke="#000000" stroke-width="1" stroke-opacity="0"></use>
                </g>
            </g>
        </g>
    </g>
</svg>