<?xml version="1.0" encoding="UTF-8" standalone="no"?>
<svg
   xmlns:dc="http://purl.org/dc/elements/1.1/"
   xmlns:cc="http://creativecommons.org/ns#"
   xmlns:rdf="http://www.w3.org/1999/02/22-rdf-syntax-ns#"
   xmlns:svg="http://www.w3.org/2000/svg"
   xmlns="http://www.w3.org/2000/svg"
   version="1.1"
   id="svg5960"
   viewBox="0 0 2657.4803 1240.1575"
   height="350mm"
   width="750mm">
  <defs
     id="defs5962" />
  <metadata
     id="metadata5965">
    <rdf:RDF>
      <cc:Work
         rdf:about="">
        <dc:format>image/svg+xml</dc:format>
        <dc:type
           rdf:resource="http://purl.org/dc/dcmitype/StillImage" />
        <dc:title></dc:title>
      </cc:Work>
    </rdf:RDF>
  </metadata>
  <g
     transform="translate(0,187.79528)"
     id="layer1">
    <g
       transform="translate(-0.7198929,40.058998)"
       id="g6577">
      <g
         transform="matrix(0.67179126,0,0,0.75770643,-3.2493625,83.808898)"
         style="font-style:normal;font-variant:normal;font-weight:normal;font-stretch:normal;font-size:1479.74658203px;line-height:125%;font-family:Arial;-inkscape-font-specification:'Arial, Normal';text-align:start;letter-spacing:0px;word-spacing:0px;writing-mode:lr-tb;text-anchor:start;fill:#ff7100;fill-opacity:1;stroke:none;stroke-width:1px;stroke-linecap:butt;stroke-linejoin:miter;stroke-opacity:1"
         id="text6512">
        <path
           d="m 602.63068,-20.700914 q -121.38546,0 -203.75417,58.525134 -49.13221,34.68156 -88.8715,98.26442 -40.46182,65.75046 -47.68714,124.99813 l 492.76717,0 -19.50838,96.81935 -484.81932,0 q -0.72253,15.17318 -0.72253,28.9013 0,55.63501 0.72253,66.47299 l 465.31094,0 -20.23091,96.81936 -429.90684,0 q 30.34636,165.45994 145.95156,234.82307 83.09124,49.85474 179.9106,49.85474 135.11358,0 210.97949,-70.80819 l 0,148.8417 q -90.31656,41.90689 -199.41897,41.90689 -326.58469,0 -441.46736,-271.67223 -23.12104,-54.91247 -39.73929,-132.94598 l -110.547476,0 20.23091,-96.81936 75.865916,0 q -2.1676,-30.34636 -2.1676,-65.75046 0,-14.45065 0.72253,-29.62383 l -94.651756,0 20.23091,-96.81935 83.813776,0 q 44.79701,-235.545603 233.378,-338.14522 116.32773,-63.58286 256.49904,-63.58286 134.39104,0 226.15267,58.525133 L 802.77218,52.27487 q -88.14896,-72.975784 -200.1415,-72.975784 z"
           id="path6523" />
      </g>
      <g
         style="font-style:normal;font-variant:normal;font-weight:bold;font-stretch:normal;font-size:459.09054565px;line-height:125%;font-family:'Roboto Condensed';-inkscape-font-specification:'Roboto Condensed, Bold';text-align:start;letter-spacing:0px;word-spacing:0px;writing-mode:lr-tb;text-anchor:start;fill:#767676;fill-opacity:1;stroke:none;stroke-width:1px;stroke-linecap:butt;stroke-linejoin:miter;stroke-opacity:1"
         id="text6518">
        <path
           d="m 753.90375,319.43474 54.9205,-236.718564 73.52622,0 -94.14942,326.384684 -68.59459,0 -93.47693,-326.384684 73.07789,0 54.69633,236.718564 z"
           id="path6530" />
        <path
           d="m 1140.1406,275.27417 q 0,65.68044 -31.159,101.99522 -30.9348,36.31478 -86.0795,36.31478 -54.92048,0 -86.30362,-35.86645 -31.38314,-36.09062 -31.83147,-100.87439 l 0,-55.81716 q 0,-67.24959 31.15897,-104.90936 31.15898,-37.88394 86.52782,-37.88394 54.4722,0 85.8553,37.21144 31.3831,36.98728 31.8315,104.0127 l 0,55.81716 z m -66.1288,-54.69633 q 0,-44.16057 -12.5532,-65.68044 -12.5533,-21.51987 -39.0048,-21.51987 -26.22735,0 -38.78061,20.84738 -12.55325,20.62321 -13.00158,62.99045 l 0,58.05881 q 0,42.81558 12.77742,63.21462 12.77742,20.17488 39.45307,20.17488 25.779,0 38.3323,-19.72655 12.5532,-19.95071 12.7774,-61.64546 l 0,-56.71382 z"
           id="path6532" />
        <path
           d="m 1286.2963,289.84492 -32.7281,0 0,119.25594 -65.9046,0 0,-326.384684 105.1335,0 q 49.5406,0 76.4404,25.779014 27.124,25.55484 27.124,72.85372 0,65.00794 -47.2989,91.01111 l 57.1622,133.60253 0,3.13831 -70.8363,0 -49.0922,-119.25594 z m -32.7281,-54.9205 37.4356,0 q 19.7266,0 29.5898,-13.00159 9.8633,-13.22575 9.8633,-35.19395 0,-49.0922 -38.3323,-49.0922 l -38.5564,0 0,97.28774 z"
           id="path6534" />
        <path
           d="m 1533.9991,283.11996 -26.0032,32.72813 0,93.25277 -65.9046,0 0,-326.384684 65.9046,0 0,142.344964 20.8474,-35.19395 60.7488,-107.151014 80.6995,0 -93.477,143.465794 95.0461,182.91889 -78.2337,0 -59.6279,-125.9809 z"
           id="path6536" />
        <path
           d="m 1851.6413,342.2996 -89.8903,0 -17.4849,66.80126 -69.7154,0 101.9952,-326.384684 60.3005,0 102.6677,326.384684 -70.3879,0 -17.4849,-66.80126 z m -75.5437,-54.9205 60.973,0 -30.4865,-116.34179 -30.4865,116.34179 z"
           id="path6538" />
        <path
           d="m 2108.0864,323.46971 q 0,-19.95071 -10.3116,-30.03815 -10.0875,-10.3116 -36.9873,-21.2957 -49.0922,-18.60572 -70.6121,-43.48807 -21.5198,-25.10651 -21.5198,-59.17964 0,-41.24642 29.1414,-66.12877 29.3657,-25.10651 74.4229,-25.10651 30.0382,0 53.5755,12.777422 23.5374,12.553258 36.0907,35.642288 12.7774,23.08902 12.7774,52.45468 l -65.6805,0 q 0,-22.86486 -9.8632,-34.74563 -9.6391,-12.10492 -28.0207,-12.10492 -17.2607,0 -26.8998,10.3116 -9.6391,10.08744 -9.6391,27.34817 0,13.44992 10.7599,24.43402 10.7599,10.75993 38.1081,22.41653 47.7472,17.26073 69.2671,42.36724 21.744,25.10652 21.744,63.88711 0,42.59141 -27.124,66.5771 -27.124,23.98569 -73.7504,23.98569 -31.6073,0 -57.6105,-13.00159 -26.0031,-13.00159 -40.798,-37.21144 -14.5708,-24.20985 -14.5708,-57.16215 l 66.1288,0 q 0,28.24482 10.9841,41.02225 10.9841,12.77742 35.8664,12.77742 34.5215,0 34.5215,-36.53895 z"
           id="path6540" />
        <path
           d="m 2356.4615,323.46971 q 0,-19.95071 -10.3116,-30.03815 -10.0874,-10.3116 -36.9873,-21.2957 -49.0922,-18.60572 -70.612,-43.48807 -21.5199,-25.10651 -21.5199,-59.17964 0,-41.24642 29.1415,-66.12877 29.3656,-25.10651 74.4229,-25.10651 30.0381,0 53.5755,12.777422 23.5373,12.553258 36.0906,35.642288 12.7774,23.08902 12.7774,52.45468 l -65.6804,0 q 0,-22.86486 -9.8633,-34.74563 -9.6391,-12.10492 -28.0207,-12.10492 -17.2607,0 -26.8998,10.3116 -9.6391,10.08744 -9.6391,27.34817 0,13.44992 10.7599,24.43402 10.76,10.75993 38.1081,22.41653 47.7472,17.26073 69.2671,42.36724 21.744,25.10652 21.744,63.88711 0,42.59141 -27.124,66.5771 -27.124,23.98569 -73.7504,23.98569 -31.6073,0 -57.6104,-13.00159 -26.0032,-13.00159 -40.7981,-37.21144 -14.5708,-24.20985 -14.5708,-57.16215 l 66.1288,0 q 0,28.24482 10.9841,41.02225 10.9841,12.77742 35.8664,12.77742 34.5215,0 34.5215,-36.53895 z"
           id="path6542" />
        <path
           d="m 2635.5474,267.87672 -102.6677,0 0,86.52781 121.4976,0 0,54.69633 -187.4022,0 0,-326.384684 186.9538,0 0,54.920504 -121.0492,0 0,77.11286 102.6677,0 0,53.12718 z"
           id="path6544" />
      </g>
      <g
         style="font-style:normal;font-variant:normal;font-weight:normal;font-stretch:normal;font-size:295.82244873px;line-height:125%;font-family:'Roboto Condensed';-inkscape-font-specification:'Roboto Condensed, Normal';text-align:start;letter-spacing:0px;word-spacing:0px;writing-mode:lr-tb;text-anchor:start;fill:#000000;fill-opacity:1;stroke:none;stroke-width:1px;stroke-linecap:butt;stroke-linejoin:miter;stroke-opacity:1"
         id="text6525">
        <path
           d="m 626.12964,699.49738 0,-210.31128 59.94449,0 q 28.74447,0 43.18892,14.01113 14.5889,14.01112 14.5889,42.03336 0,14.73335 -7.36667,26.00002 -7.36667,11.26668 -19.93335,17.47779 14.44446,4.33334 22.82224,17.76668 8.52223,13.43335 8.52223,32.35558 0,28.31114 -15.60001,44.48893 -15.45557,16.17779 -44.20004,16.17779 l -61.96671,0 z m 26.43335,-98.36675 0,75.68895 36.11114,0 q 15.02223,0 23.83335,-9.82223 8.81112,-9.96667 8.81112,-27.8778 0,-37.98892 -32.06669,-37.98892 l -36.68892,0 z m 0,-22.24446 33.94447,0 q 13.72224,0 22.10002,-9.24445 8.52223,-9.24445 8.52223,-24.55557 0,-17.33335 -7.65556,-25.13336 -7.65556,-7.94445 -23.40002,-7.94445 l -33.51114,0 0,66.87783 z"
           id="path6547" />
        <path
           d="m 864.17426,699.49738 q -2.31111,-5.05556 -3.32222,-17.04446 -13.57779,19.93335 -34.6667,19.93335 -21.23335,0 -33.22224,-11.84446 -11.84446,-11.98889 -11.84446,-33.65558 0,-23.83335 16.17779,-37.84447 16.17779,-14.01112 44.34448,-14.30001 l 18.77779,0 0,-16.61113 q 0,-14.01112 -6.21111,-19.93335 -6.21112,-5.92222 -18.92224,-5.92222 -11.55556,0 -18.77779,6.93334 -7.22223,6.78889 -7.22223,17.33334 l -25.56669,0 q 0,-11.98889 7.07779,-22.82224 7.07778,-10.97778 19.06668,-17.1889 11.9889,-6.21111 26.72224,-6.21111 23.9778,0 36.40003,11.98889 12.56667,11.84446 12.85556,34.6667 l 0,78.86672 q 0.14445,18.05557 4.91112,31.34447 l 0,2.31112 -26.5778,0 z m -34.08891,-20.36669 q 9.38889,0 17.91112,-5.2 8.52223,-5.2 12.42223,-13.00001 l 0,-37.2667 -14.44445,0 q -18.20002,0.28889 -28.74447,8.23334 -10.54445,7.80001 -10.54445,21.95558 0,13.2889 5.34445,19.35557 5.34444,5.92222 18.05557,5.92222 z"
           id="path6549" />
        <path
           d="m 949.39656,543.20837 0.72223,16.90001 q 14.87779,-19.7889 37.98891,-19.7889 41.4556,0 42.0334,55.32226 l 0,103.85564 -25.4223,0 0,-102.70008 q 0,-18.34446 -6.21109,-26.00002 -6.06667,-7.80001 -18.34446,-7.80001 -9.53334,0 -17.1889,6.35556 -7.51112,6.35556 -12.13334,16.61113 l 0,113.53342 -25.56669,0 0,-156.28901 24.12224,0 z"
           id="path6551" />
        <path
           d="m 1107.8522,627.99732 -13.5777,15.60001 0,55.90005 -25.5667,0 0,-221.86684 25.5667,0 0,132.74455 48.6778,-67.16672 30.6222,0 -49.6889,65.28894 56.1889,91.00007 -29.7556,0 -42.4667,-71.50006 z"
           id="path6553" />
        <path
           d="m 1281.7635,685.77514 q -12.7112,16.61113 -37.1223,16.61113 -21.2333,0 -32.0667,-14.5889 -10.8333,-14.73335 -10.9778,-42.75559 l 0,-101.83341 25.4223,0 0,99.95563 q 0,36.54447 21.9555,36.54447 23.2556,0 32.0667,-20.80001 l 0,-115.70009 25.5667,0 0,156.28901 -24.2667,0 -0.5777,-13.72224 z m -73.8112,-184.31125 q 0,-6.5 3.9,-10.83334 4.0444,-4.47778 11.8444,-4.47778 7.8,0 11.8445,4.47778 4.0444,4.33334 4.0444,10.83334 0,6.50001 -4.0444,10.83334 -4.0445,4.33334 -11.8445,4.33334 -7.8,0 -11.8444,-4.33334 -3.9,-4.33333 -3.9,-10.83334 z m 62.1111,0.28889 q 0,-6.50001 3.9,-10.97779 4.0445,-4.47778 11.8445,-4.47778 7.8,0 11.8445,4.47778 4.0444,4.47778 4.0444,10.97779 0,6.5 -4.0444,10.83334 -4.0445,4.33334 -11.8445,4.33334 -7.8,0 -11.8445,-4.33334 -3.9,-4.33334 -3.9,-10.83334 z"
           id="path6555" />
        <path
           d="m 1458.5636,628.86399 q 0,36.54447 -13.1445,55.03337 -13.1444,18.48891 -38.1333,18.48891 -24.8445,0 -37.2667,-21.3778 l -1.3,18.48891 -23.2556,0 0,-221.86684 25.4222,0 0,82.76673 q 12.5667,-20.07779 36.1112,-20.07779 25.7111,0 38.5667,18.20001 12.8555,18.20001 13,54.88893 l 0,15.45557 z m -25.4222,-14.5889 q 0,-27.73336 -7.8001,-39.43337 -7.6555,-11.84445 -24.9889,-11.84445 -19.7889,0 -29.4667,21.3778 l 0,74.38894 q 9.5334,21.08891 29.7556,21.08891 17.3334,0 24.8445,-12.13335 7.5111,-12.13334 7.6556,-37.70003 l 0,-15.74445 z"
           id="path6557" />
        <path
           d="m 1547.397,702.38627 q -29.1778,0 -44.7778,-17.33335 -15.6,-17.47779 -15.8889,-51.13337 l 0,-18.92224 q 0,-34.95558 15.1667,-54.74449 15.3111,-19.93334 42.6111,-19.93334 27.4445,0 41.0223,17.47779 13.5778,17.47779 13.8667,54.45559 l 0,16.75557 -87.2445,0 0,3.61112 q 0,25.13335 9.3888,36.54447 9.5334,11.41112 27.3001,11.41112 11.2666,0 19.7889,-4.18889 8.6666,-4.33334 16.1778,-13.57779 l 13.2889,16.17779 q -16.6112,23.40002 -50.7001,23.40002 z m -2.8889,-140.11122 q -15.8889,0 -23.5444,10.97778 -7.6556,10.83335 -8.6667,33.80003 l 61.5334,0 0,-3.46667 q -1.0111,-22.24446 -8.0889,-31.7778 -6.9334,-9.53334 -21.2334,-9.53334 z"
           id="path6559" />
        <path
           d="m 1694.7304,567.18616 q -5.3444,-1.01111 -11.5555,-1.01111 -19.6445,0 -27.4445,21.52224 l 0,111.80009 -25.5667,0 0,-156.28901 24.8445,0 0.4333,15.8889 q 10.2556,-18.77779 29.0334,-18.77779 6.0667,0 10.1111,2.02222 l 0.1444,24.84446 z"
           id="path6561" />
        <path
           d="m 1839.175,654.57512 23.6889,-111.36675 25.2778,0 -38.2778,156.28901 -20.3667,0 -30.4778,-111.80009 -29.7556,111.80009 -20.5111,0 -37.9889,-156.28901 25.1333,0 24.2667,108.6223 29.0334,-108.6223 20.2222,0 29.7556,111.36675 z"
           id="path6563" />
        <path
           d="m 1970.9084,702.38627 q -29.1778,0 -44.7778,-17.33335 -15.6,-17.47779 -15.8889,-51.13337 l 0,-18.92224 q 0,-34.95558 15.1667,-54.74449 15.3111,-19.93334 42.6111,-19.93334 27.4445,0 41.0223,17.47779 13.5778,17.47779 13.8667,54.45559 l 0,16.75557 -87.2445,0 0,3.61112 q 0,25.13335 9.3889,36.54447 9.5333,11.41112 27.3,11.41112 11.2667,0 19.7889,-4.18889 8.6667,-4.33334 16.1778,-13.57779 l 13.2889,16.17779 q -16.6111,23.40002 -50.7001,23.40002 z m -2.8889,-140.11122 q -15.8889,0 -23.5444,10.97778 -7.6556,10.83335 -8.6667,33.80003 l 61.5334,0 0,-3.46667 q -1.0111,-22.24446 -8.0889,-31.7778 -6.9333,-9.53334 -21.2334,-9.53334 z"
           id="path6565" />
        <path
           d="m 2081.2641,699.49738 -25.5667,0 0,-156.28901 25.5667,0 0,156.28901 z m 2.0222,-197.7446 q 0,6.5 -3.6111,10.83334 -3.6112,4.33334 -10.9778,4.33334 -7.2223,0 -10.8334,-4.33334 -3.6111,-4.33334 -3.6111,-10.83334 0,-6.50001 3.6111,-10.97779 3.6111,-4.47778 10.8334,-4.47778 7.2222,0 10.8333,4.62223 3.7556,4.47778 3.7556,10.83334 z"
           id="path6567" />
        <path
           d="m 2197.2531,659.48623 q 0,-8.23334 -6.2111,-14.15556 -6.2112,-5.92223 -23.9778,-13.86668 -20.6556,-8.52223 -29.1778,-14.5889 -8.3778,-6.06667 -12.5667,-13.72223 -4.1889,-7.80001 -4.1889,-18.48891 0,-19.06668 13.8667,-31.63335 14.0111,-12.71112 35.6778,-12.71112 22.8222,0 36.6889,13.28889 13.8667,13.2889 13.8667,34.08892 l -25.4223,0 q 0,-10.54445 -7.0778,-17.91112 -7.0777,-7.51112 -18.0555,-7.51112 -11.2667,0 -17.7667,5.92222 -6.3556,5.77779 -6.3556,15.60002 0,7.8 4.6223,12.56667 4.7666,4.76667 22.6778,12.56668 28.4555,11.12223 38.7111,21.81113 10.2556,10.54445 10.2556,26.86668 0,20.36669 -14.0112,32.64447 -14.0111,12.13335 -37.5555,12.13335 -24.4112,0 -39.5779,-14.01113 -15.1666,-14.01112 -15.1666,-35.53336 l 25.7111,0 q 0.4333,13.00001 7.9444,20.36669 7.5112,7.36667 21.089,7.36667 12.7111,0 19.3555,-5.63334 6.6445,-5.77778 6.6445,-15.45557 z"
           id="path6569" />
        <path
           d="m 2335.6309,685.77514 q -12.7111,16.61113 -37.1222,16.61113 -21.2334,0 -32.0667,-14.5889 -10.8333,-14.73335 -10.9778,-42.75559 l 0,-101.83341 25.4223,0 0,99.95563 q 0,36.54447 21.9555,36.54447 23.2556,0 32.0667,-20.80001 l 0,-115.70009 25.5667,0 0,156.28901 -24.2667,0 -0.5778,-13.72224 z"
           id="path6571" />
        <path
           d="m 2423.3089,543.20837 0.7222,16.90001 q 14.8778,-19.7889 37.9889,-19.7889 41.4556,0 42.0334,55.32226 l 0,103.85564 -25.4223,0 0,-102.70008 q 0,-18.34446 -6.2111,-26.00002 -6.0667,-7.80001 -18.3445,-7.80001 -9.5333,0 -17.1889,6.35556 -7.5111,6.35556 -12.1333,16.61113 l 0,113.53342 -25.5667,0 0,-156.28901 24.1223,0 z"
           id="path6573" />
        <path
           d="m 2537.42,614.27509 q 0,-36.54447 13.2889,-55.17782 13.2889,-18.77779 38.8556,-18.77779 23.8333,0 36.2556,20.36668 l 1.3,-17.47779 23.1111,0 0,157.73345 q 0,29.03336 -14.8778,44.48892 -14.8778,15.60002 -41.4556,15.60002 -11.5555,0 -26,-5.77779 -14.3,-5.63333 -21.5222,-14.01112 l 10.4,-17.62223 q 15.8889,15.60001 35.1,15.60001 31.9222,0 32.7889,-34.81114 l 0,-20.36668 q -12.4222,18.34446 -35.2445,18.34446 -24.2666,0 -37.8444,-18.20002 -13.5778,-18.34446 -14.1556,-52.57782 l 0,-17.33334 z m 25.5667,14.5889 q 0,26.28891 7.6555,38.71114 7.8,12.27779 25.4223,12.27779 19.0667,0 28.6,-19.50002 l 0,-78.1445 q -9.9667,-19.21113 -28.3111,-19.21113 -17.6223,0 -25.4223,12.42223 -7.8,12.27779 -7.9444,37.84448 l 0,15.60001 z"
           id="path6575" />
      </g>
    </g>
  </g>
</svg>
